<?xml version="1.0" encoding="UTF-8"?><svg id="Layer_2" xmlns="http://www.w3.org/2000/svg" viewBox="0 0 64 64"><defs><style>.cls-1{fill:#f8f3f2;}.cls-2{fill:#e72564;}</style></defs><g id="content"><rect class="cls-2" width="64" height="64"/><path class="cls-1" d="m59.5931,44.43435l-9.87092-13.68876c-.00042-.00042-.00063-.00084-.00105-.00168l-15.97386-22.15273c-.80938-1.12068-2.68475-1.12068-3.49412,0l-15.97281,22.15105c-.00042.00084-.00105.00084-.00147.00168l-9.87239,13.69044c-.40174.55866-.51364,1.2738-.30078,1.92669.21286.65457.7244,1.16611,1.37771,1.37981l25.84625,8.46229c.00084,0,.00147,0,.00231.00042.2156.07025.44087.10727.66782.10727s.45223-.03702.66782-.10727c.00084-.00042.00147-.00042.00231-.00042l25.84625-8.46229c.65331-.2137,1.16485-.72524,1.37771-1.37981.21286-.65289.10096-1.36803-.30078-1.92669Zm-27.5929-30.90108l10.35869,14.36688-9.68856-3.17189c-.07362-.0244-.15144-.02019-.22695-.03618-.07635-.01683-.14745-.02861-.22506-.03618-.07341-.00757-.1445-.03534-.21812-.03534s-.14492.02776-.21833.03534c-.07804.00757-.14871.01935-.22548.03618-.07488.01599-.1527.01178-.2259.03618h-.00084l-9.62609,3.15169-.06205.02019,10.35869-14.36688Zm-14.63738,20.30008l11.28123-3.69352,1.20187-.39375v21.43927l-20.22183-6.62142,7.73873-10.73057Zm16.79081,17.35199v-21.43927l12.4831,4.08728,7.73873,10.73057-20.22183,6.62142Z"/></g></svg>