<?xml version="1.0" standalone="no"?>
<!DOCTYPE svg PUBLIC "-//W3C//DTD SVG 20010904//EN"
 "http://www.w3.org/TR/2001/REC-SVG-20010904/DTD/svg10.dtd">
<svg version="1.0" xmlns="http://www.w3.org/2000/svg"
 width="500.000000pt" height="500.000000pt" viewBox="0 0 500.000000 500.000000"
 preserveAspectRatio="xMidYMid meet">
<metadata>
Created by potrace 1.14, written by Peter Selinger 2001-2017
</metadata>
<g transform="translate(0.000000,500.000000) scale(0.100000,-0.100000)"
fill="#000000" stroke="none">
<path d="M2448 4660 c-71 -20 -63 -11 -383 -455 -190 -265 -534 -741 -922
-1279 -155 -215 -299 -415 -320 -444 -21 -30 -44 -61 -51 -70 -22 -29 -222
-305 -240 -332 -9 -14 -122 -171 -251 -350 -288 -397 -286 -394 -277 -468 8
-63 39 -118 83 -144 16 -9 100 -39 188 -68 88 -29 232 -76 320 -105 88 -29
342 -112 565 -185 223 -72 412 -134 420 -137 8 -3 20 -7 25 -9 9 -2 281 -91
740 -242 141 -47 170 -47 300 -4 50 16 299 98 555 182 256 83 587 191 735 240
149 49 383 126 520 170 467 153 466 153 503 201 48 64 53 161 12 220 -23 33
-109 153 -288 401 -49 68 -201 278 -337 468 -371 514 -516 716 -901 1250 -193
267 -453 627 -578 801 -245 340 -262 357 -348 363 -24 2 -55 0 -70 -4z m235
-764 c159 -220 147 -203 236 -326 300 -416 500 -695 497 -697 -1 -2 -40 10
-87 26 -46 16 -239 80 -429 142 -296 97 -354 113 -405 112 -48 -1 -144 -29
-485 -142 -233 -77 -425 -139 -426 -138 -2 1 21 35 49 74 29 39 59 81 67 93 8
12 42 59 74 104 75 103 361 499 395 547 14 20 84 117 155 215 71 99 139 193
150 211 l21 32 25 -31 c14 -17 87 -116 163 -222z m-375 -2152 c0 -889 -1 -955
-16 -949 -9 4 -33 12 -52 17 -19 5 -80 25 -135 43 -55 18 -237 78 -405 133
-168 55 -499 163 -736 241 -236 78 -435 141 -442 141 -23 0 -11 22 75 141 49
66 95 130 103 142 8 12 122 170 253 352 l238 330 92 31 c51 17 218 73 372 123
154 50 361 118 460 151 99 33 183 60 187 60 3 0 6 -430 6 -956z m887 794 c253
-82 494 -161 536 -175 l76 -25 129 -180 c71 -99 136 -188 144 -199 8 -10 25
-33 38 -51 13 -18 89 -123 168 -233 219 -303 220 -305 192 -305 -7 0 -154 -47
-327 -104 -174 -57 -512 -168 -751 -246 -239 -78 -495 -162 -568 -186 -73 -24
-135 -44 -136 -44 -2 0 -4 430 -4 955 l0 956 22 -7 c11 -3 228 -73 481 -156z"/>
</g>
</svg>
