<?xml version="1.0" encoding="UTF-8" standalone="no"?>
<svg
   xmlns:dc="http://purl.org/dc/elements/1.1/"
   xmlns:cc="http://creativecommons.org/ns#"
   xmlns:rdf="http://www.w3.org/1999/02/22-rdf-syntax-ns#"
   xmlns:svg="http://www.w3.org/2000/svg"
   xmlns="http://www.w3.org/2000/svg"
   xmlns:sodipodi="http://sodipodi.sourceforge.net/DTD/sodipodi-0.dtd"
   xmlns:inkscape="http://www.inkscape.org/namespaces/inkscape"
   inkscape:version="1.0beta2 (2b71d25, 2019-12-03)"
   sodipodi:docname="pydantic-white-square.svg"
   id="svg891"
   version="1.1"
   viewBox="0 0 120 120">
  <metadata
     id="metadata897">
    <rdf:RDF>
      <cc:Work
         rdf:about="">
        <dc:format>image/svg+xml</dc:format>
        <dc:type
           rdf:resource="http://purl.org/dc/dcmitype/StillImage" />
        <dc:title></dc:title>
      </cc:Work>
    </rdf:RDF>
  </metadata>
  <defs
     id="defs895" />
  <sodipodi:namedview
     inkscape:current-layer="svg891"
     inkscape:window-maximized="0"
     inkscape:window-y="38"
     inkscape:window-x="0"
     inkscape:cy="60"
     inkscape:cx="5.0735294"
     inkscape:zoom="2.2666667"
     inkscape:pagecheckerboard="true"
     showgrid="false"
     id="namedview893"
     inkscape:window-height="987"
     inkscape:window-width="1728"
     inkscape:pageshadow="2"
     inkscape:pageopacity="0"
     guidetolerance="10"
     gridtolerance="10"
     objecttolerance="10"
     borderopacity="1"
     inkscape:document-rotation="0"
     bordercolor="#666666"
     pagecolor="#ffffff" />
  <path
     style="fill:#ffffff;fill-opacity:1"
     id="path889"
     d="M 119.18,86.64 98.02,57.3 c 0,0 0,0 0,0 L 63.77,9.8 c -1.74,-2.4 -5.76,-2.4 -7.49,0 l -34.24,47.49 c 0,0 0,0 0,0 L 0.87,86.64 c -0.86,1.2 -1.1,2.73 -0.65,4.13 0.46,1.4 1.55,2.5 2.95,2.96 l 55.41,18.14 c 0,0 0,0 0.01,9e-4 0.46,0.15 0.94,0.23 1.43,0.23 0.49,0 0.97,-0.08 1.43,-0.23 0,0 0,0 0.01,0 L 116.87,93.73 c 1.4,-0.46 2.5,-1.55 2.95,-2.96 0.46,-1.4 0.22,-2.93 -0.65,-4.13 z m -59.15,-66.25 22.21,30.8 -20.77,-6.8 c -0.16,-0.05 -0.33,-0.04 -0.49,-0.08 -0.16,-0.04 -0.32,-0.06 -0.48,-0.08 -0.16,-0.02 -0.31,-0.08 -0.47,-0.08 -0.16,0 -0.31,0.06 -0.47,0.08 -0.17,0.02 -0.32,0.04 -0.48,0.08 -0.16,0.03 -0.33,0.03 -0.48,0.08 h 0 l -20.64,6.76 -0.13,0.04 22.21,-30.8 z m -31.38,43.52 24.18,-7.92 2.58,-0.84 V 101.12 L 12.06,86.92 Z m 36,37.2 V 55.15 l 26.76,8.76 16.59,23 z"
     fill="#e72564" />
</svg>
