<svg width="192" height="192" viewBox="0 0 192 192" fill="none" xmlns="http://www.w3.org/2000/svg">
<path d="M96 16C51.8 16 16 51.8 16 96C16 140.2 51.8 176 96 176C140.2 176 176 140.2 176 96C176 51.8 140.2 16 96 16ZM128 151.36V144H96V160C60.72 160 32 131.28 32 96H48V112H64V96H80V80H96V64H40.64C51.72 44.92 72.36 32 96 32C119.64 32 140.24 44.92 151.36 64H140V80H124V112H140V128H151.36C145.76 137.68 137.68 145.72 128 151.36Z" fill="#E520E9"/>
<path d="M112 48H96V64H112V48Z" fill="#E520E9"/>
<path d="M96 112H80H64V128H80V144H96V128V112Z" fill="#E520E9"/>
</svg>
