<svg width="307" height="76" viewBox="0 0 307 76" fill="none" xmlns="http://www.w3.org/2000/svg">
<path fill-rule="evenodd" clip-rule="evenodd" d="M202.247 0L210.273 8.02567L202.247 16.0513L194.222 8.02567L202.247 0ZM40.4878 44.4255C40.4878 31.3671 51.0774 20.7777 64.1359 20.7777C77.1944 20.7777 87.784 31.3671 87.784 44.4255V51.9961C87.784 65.0544 77.1944 75.6439 64.1359 75.6439C51.0774 75.6439 40.4878 65.0544 40.4878 51.9961V44.4255ZM64.1359 63.8258C70.829 63.8258 76.2466 58.2327 76.2466 51.3408V45.5722C76.2466 38.6803 70.829 33.0872 64.1359 33.0872C57.4428 33.0872 52.0252 38.6803 52.0252 45.5722V51.3408C52.0252 58.2327 57.4428 63.8258 64.1359 63.8258ZM189.769 21.7255V33.0755H159.498V42.5417H182.198V53.8917H159.498V63.3461V74.7079H155.239H148.148V53.8917V51.9961V42.5417V21.7255H155.719H159.498H189.769ZM244.26 48.2167H247.665V48.205C253.106 48.205 257.506 52.6163 257.506 58.0456V74.6962H246.156V53.88H227.703V74.6962H216.353V21.7255H245.208V21.7606C252.076 22.2521 257.506 27.658 257.506 34.9711C257.506 42.2843 251.573 48.2167 244.26 48.2167ZM227.703 42.5417H233.39V42.5534H242.68C245.29 42.5534 247.525 40.5174 247.571 37.9081C247.618 35.2519 245.489 33.0872 242.844 33.0872H227.703V42.5417ZM207.93 21.7255H196.58V74.6962H207.93V21.7255ZM124.118 44.4255H117.495V53.8799H129.348C128.202 59.555 123.334 63.8141 117.495 63.8141C110.802 63.8141 105.384 58.221 105.384 51.3291V45.5605C105.384 38.6686 110.802 33.0755 117.495 33.0755C120.9 33.0755 123.978 34.5264 126.177 36.8549H139.903C136.743 27.5058 127.909 20.7777 117.495 20.7777C104.437 20.7777 93.847 31.3671 93.847 44.4255V51.9961C93.847 65.0544 104.437 75.6439 117.495 75.6439C130.554 75.6439 140.675 67.1255 140.675 51.9961V44.4255H124.118ZM306.122 21.7255V33.0755H275.851V42.5417H298.563V53.8917H287.202V63.3461H306.122V74.7079H287.202H282.954H275.851V53.8917H264.501V51.9961V42.5417V33.0755V21.7255H306.122ZM22.7003 63.3461V51.9961H11.3501V21.7255H0V63.3461H11.3501V74.7079H37.8416V63.3461H22.7003Z" fill="#FBFFEA"/>
</svg>
