<svg width="192" height="192" viewBox="0 0 192 192" fill="none" xmlns="http://www.w3.org/2000/svg">
<g clip-path="url(#clip0_96_1831)">
<path d="M108 17V84H175C169.8 49.44 142.56 22.2 108 17Z" fill="#092224"/>
<path d="M96 108L84 96L96 84V40C65.08 40 40 65.08 40 96C40 111.48 46.28 125.48 56.4 135.6C56.4 135.6 56.4 135.6 56.44 135.64C57.72 136.92 59.08 138.12 60.44 139.28C60.76 139.56 61.12 139.76 61.44 140.04C62.56 140.92 63.68 141.76 64.84 142.56C65.12 142.76 65.44 142.92 65.72 143.08C67 143.88 68.24 144.68 69.56 145.4C69.72 145.48 69.92 145.56 70.08 145.64C71.52 146.4 73 147.12 74.52 147.72C74.6 147.72 74.68 147.76 74.76 147.8C76.36 148.44 78 149.04 79.64 149.56C79.72 149.56 79.84 149.6 79.92 149.64C81.56 150.12 83.24 150.56 84.92 150.88C85.28 150.96 85.68 151 86.04 151.04C87.48 151.28 88.88 151.52 90.36 151.68C92.2 151.88 94.08 151.96 95.96 151.96C126.68 151.96 151.96 126.68 151.96 95.96H107.96L95.96 107.96L96 108Z" fill="#092224"/>
</g>
<defs>
<clipPath id="clip0_96_1831">
<rect width="192" height="192" fill="white"/>
</clipPath>
</defs>
</svg>
