<svg width="192" height="192" viewBox="0 0 192 192" fill="none" xmlns="http://www.w3.org/2000/svg">
<g clip-path="url(#clip0_88_1541)">
<path d="M144.533 65.3359H132.533V57.3359C132.533 37.4959 116.373 21.3359 96.5332 21.3359C76.6932 21.3359 60.5332 37.4959 60.5332 57.3359V65.3359H48.5332C44.1332 65.3359 40.5332 68.9359 40.5332 73.3359V137.336H56.5332V153.336H72.5332V169.336H152.533V73.3359C152.533 68.9359 148.933 65.3359 144.533 65.3359ZM96.5332 125.336L84.5332 113.336L96.5332 101.336L108.533 113.336L96.5332 125.336ZM116.533 65.3359H76.5332V57.3359C76.5332 46.2959 85.4932 37.3359 96.5332 37.3359C107.573 37.3359 116.533 46.2959 116.533 57.3359V65.3359Z" fill="#092224"/>
</g>
<defs>
<clipPath id="clip0_88_1541">
<rect width="192" height="192" fill="white"/>
</clipPath>
</defs>
</svg>
