<svg xmlns="http://www.w3.org/2000/svg" fill="none" viewBox="0 0 966 120">
    <path fill="#061314" d="M178.288 93.055V17.98h32.604c7.028 0 12.462 2.044 16.302 6.13 3.84 4.088 5.76 9.573 5.76 16.457s-1.92 12.37-5.76 16.456c-3.84 4.087-9.274 6.131-16.302 6.131h-20.323v29.901h-12.281Zm12.281-40.55h19.562c3.116 0 5.543-.806 7.282-2.42 1.739-1.612 2.608-3.925 2.608-6.936v-5.163c0-3.012-.869-5.325-2.608-6.938-1.739-1.613-4.166-2.42-7.282-2.42h-19.562v23.878ZM280.23 37.125h11.412l-23.801 67.009c-.653 1.864-1.395 3.46-2.228 4.787-.833 1.326-1.812 2.402-2.935 3.226-1.123.825-2.481 1.434-4.075 1.828-1.594.395-3.478.592-5.651.592h-6.847v-9.572h9.563l3.261-9.466-20.54-58.404h11.846l11.303 32.913 3.26 12.154h.543l3.587-12.154 11.302-32.913ZM336.316 83.806h-.543c-1.232 3.298-3.243 5.879-6.032 7.744-2.79 1.864-6.068 2.796-9.836 2.796-7.173 0-12.715-2.563-16.628-7.69-3.912-5.128-5.868-12.316-5.868-21.565 0-9.25 1.956-16.439 5.868-21.566 3.913-5.127 9.455-7.69 16.628-7.69 3.768 0 7.046.914 9.836 2.742 2.789 1.829 4.8 4.428 6.032 7.799h.543V13.463h11.846v79.592h-11.846v-9.25Zm-12.824.43c3.623 0 6.666-.879 9.129-2.636 2.463-1.756 3.695-4.069 3.695-6.937V55.518c0-2.868-1.232-5.181-3.695-6.938-2.463-1.757-5.506-2.635-9.129-2.635-4.13 0-7.427 1.309-9.89 3.926-2.463 2.617-3.695 6.077-3.695 10.38v9.68c0 4.302 1.232 7.762 3.695 10.379s5.76 3.925 9.89 3.925ZM406.524 93.055c-3.115 0-5.507-.878-7.173-2.635-1.667-1.756-2.681-3.997-3.043-6.722h-.543c-1.087 3.514-3.079 6.166-5.977 7.96-2.899 1.792-6.413 2.688-10.543 2.688-5.868 0-10.379-1.505-13.531-4.517-3.151-3.012-4.727-7.063-4.727-12.154 0-5.594 2.046-9.788 6.14-12.584 4.094-2.797 10.089-4.195 17.987-4.195h10.216v-4.733c0-3.442-.942-6.095-2.826-7.96-1.884-1.864-4.818-2.796-8.803-2.796-3.333 0-6.05.717-8.151 2.151-2.101 1.434-3.876 3.263-5.325 5.486l-7.065-6.346c1.884-3.155 4.529-5.755 7.934-7.798 3.406-2.044 7.862-3.066 13.368-3.066 7.318 0 12.933 1.686 16.846 5.056 3.912 3.37 5.868 8.21 5.868 14.52v28.073h5.978v9.572h-6.63Zm-23.91-7.636c3.695 0 6.739-.807 9.129-2.42 2.392-1.614 3.587-3.783 3.587-6.508v-8.066h-9.998c-8.188 0-12.282 2.51-12.282 7.528v1.936c0 2.51.852 4.393 2.555 5.647 1.702 1.255 4.039 1.883 7.009 1.883ZM424.783 93.055v-55.93h11.846v9.25h.543c1.232-3.011 3.097-5.52 5.597-7.529 2.5-2.008 5.924-3.012 10.271-3.012 5.796 0 10.306 1.883 13.531 5.647 3.224 3.765 4.836 9.125 4.836 16.08v35.494H459.56V59.067c0-8.748-3.55-13.122-10.65-13.122-1.522 0-3.025.197-4.511.592-1.485.394-2.807.985-3.966 1.775a8.86 8.86 0 0 0-2.772 3.01c-.688 1.22-1.032 2.654-1.032 4.303v37.43h-11.846ZM503.468 93.055c-4.13 0-7.246-1.057-9.347-3.173-2.101-2.115-3.152-5.109-3.152-8.98V46.697h-8.803v-9.573h4.782c1.956 0 3.315-.43 4.076-1.29.76-.86 1.141-2.26 1.141-4.195v-9.788h10.65v15.273h11.846v9.573h-11.846v36.785h10.977v9.572h-10.324ZM533.463 27.122c-2.463 0-4.257-.573-5.38-1.72-1.123-1.148-1.684-2.618-1.684-4.41v-1.83c0-1.792.561-3.262 1.684-4.409 1.123-1.147 2.917-1.72 5.38-1.72 2.464 0 4.239.573 5.326 1.72 1.087 1.147 1.63 2.617 1.63 4.41v1.828c0 1.793-.543 3.263-1.63 4.41-1.087 1.148-2.862 1.721-5.326 1.721Zm-5.977 10.003h11.846v55.93h-11.846v-55.93ZM578.131 94.346c-4.057 0-7.68-.68-10.868-2.043-3.188-1.363-5.869-3.317-8.042-5.862-2.174-2.546-3.84-5.629-5-9.25-1.159-3.622-1.738-7.655-1.738-12.1 0-4.447.579-8.48 1.738-12.1 1.16-3.622 2.826-6.706 5-9.25 2.173-2.547 4.854-4.5 8.042-5.863 3.188-1.362 6.811-2.044 10.868-2.044 5.652 0 10.289 1.255 13.912 3.765 3.622 2.51 6.267 5.844 7.933 10.003l-9.781 4.518c-.797-2.582-2.192-4.643-4.184-6.185-1.993-1.542-4.62-2.313-7.88-2.313-4.347 0-7.625 1.345-9.835 4.034-2.211 2.689-3.315 6.184-3.315 10.487v10.002c0 4.303 1.104 7.799 3.315 10.488 2.21 2.689 5.488 4.033 9.835 4.033 3.478 0 6.249-.843 8.314-2.528 2.065-1.685 3.714-3.925 4.946-6.722l9.02 4.733c-1.884 4.589-4.71 8.102-8.477 10.54-3.768 2.438-8.368 3.657-13.803 3.657ZM638.232 93.055V17.98h12.281V82.3h30.865v10.755h-43.146ZM714.21 94.346c-3.912 0-7.481-.68-10.705-2.043s-5.959-3.317-8.205-5.862c-2.246-2.546-3.985-5.629-5.217-9.25-1.232-3.622-1.847-7.655-1.847-12.1 0-4.447.615-8.48 1.847-12.1 1.232-3.622 2.971-6.706 5.217-9.25 2.246-2.547 4.981-4.5 8.205-5.863 3.224-1.362 6.793-2.044 10.705-2.044 3.913 0 7.481.682 10.706 2.044 3.224 1.362 5.959 3.316 8.205 5.862 2.246 2.545 3.985 5.63 5.217 9.25 1.231 3.621 1.847 7.654 1.847 12.1s-.616 8.48-1.847 12.1c-1.232 3.622-2.971 6.705-5.217 9.25-2.246 2.546-4.981 4.5-8.205 5.863-3.225 1.362-6.793 2.043-10.706 2.043Zm0-9.68c4.058 0 7.319-1.237 9.782-3.711 2.464-2.474 3.695-6.184 3.695-11.132v-9.465c0-4.948-1.231-8.659-3.695-11.133-2.463-2.474-5.724-3.71-9.782-3.71-4.057 0-7.317 1.236-9.781 3.71-2.463 2.474-3.695 6.185-3.695 11.133v9.465c0 4.948 1.232 8.658 3.695 11.132 2.464 2.474 5.724 3.711 9.781 3.711ZM802.894 98.326c0 5.808-2.246 10.182-6.738 13.122-4.492 2.94-11.81 4.41-21.954 4.41-4.637 0-8.568-.305-11.792-.914-3.224-.61-5.868-1.488-7.933-2.635-2.065-1.148-3.569-2.546-4.511-4.196-.941-1.649-1.413-3.549-1.413-5.7 0-3.083.852-5.485 2.554-7.207 1.703-1.72 4.076-2.903 7.119-3.549v-1.183c-4.274-1.362-6.412-4.23-6.412-8.604 0-2.869.978-5.074 2.935-6.616 1.955-1.54 4.31-2.635 7.064-3.28v-.43c-3.333-1.577-5.887-3.783-7.662-6.615-1.775-2.832-2.663-6.149-2.663-9.95 0-5.735 1.938-10.36 5.815-13.874 3.875-3.514 9.436-5.27 16.682-5.27 3.985 0 7.39.573 10.216 1.72V36.05c0-2.51.598-4.464 1.793-5.862 1.196-1.399 3.062-2.098 5.598-2.098h8.693v9.466h-11.52v2.258c2.536 1.65 4.492 3.783 5.87 6.4 1.376 2.617 2.064 5.54 2.064 8.766 0 5.664-1.956 10.236-5.868 13.713-3.913 3.478-9.492 5.217-16.737 5.217-2.754 0-5.217-.287-7.391-.86-1.449.501-2.717 1.201-3.803 2.097-1.087.896-1.631 2.061-1.631 3.496 0 1.505.688 2.581 2.066 3.227 1.376.645 3.332.967 5.868.967h13.911c6.956 0 11.991 1.381 15.107 4.142 3.116 2.76 4.673 6.543 4.673 11.347Zm-11.085 1.29c0-1.936-.743-3.478-2.228-4.624-1.486-1.147-4.185-1.722-8.097-1.722h-19.128c-2.608 1.507-3.912 3.658-3.912 6.454 0 2.295.923 4.141 2.771 5.539 1.847 1.399 4.981 2.098 9.401 2.098h7.39c9.201 0 13.803-2.582 13.803-7.745Zm-17.715-34.203c3.477 0 6.176-.771 8.096-2.312 1.921-1.542 2.88-3.927 2.88-7.153v-2.151c0-3.227-.959-5.611-2.88-7.153-1.92-1.542-4.619-2.313-8.096-2.313-3.478 0-6.177.771-8.097 2.313-1.92 1.542-2.88 3.926-2.88 7.153v2.15c0 3.227.96 5.612 2.88 7.154 1.92 1.541 4.619 2.312 8.097 2.312ZM814.632 46.698h-8.586v-9.573h8.586v-9.25c0-4.517 1.195-8.049 3.586-10.594 2.391-2.546 5.977-3.818 10.759-3.818h9.347v9.572h-11.846v14.09h33.582v55.93h-11.846V46.698h-21.736v46.357h-11.846V46.698Zm39.56-19.576c-2.464 0-4.257-.573-5.38-1.72-1.123-1.148-1.685-2.618-1.685-4.41v-1.83c0-1.792.562-3.262 1.685-4.409 1.123-1.147 2.916-1.72 5.38-1.72 2.463 0 4.238.573 5.325 1.72 1.087 1.147 1.63 2.617 1.63 4.41v1.828c0 1.793-.543 3.263-1.63 4.41-1.087 1.148-2.862 1.721-5.325 1.721ZM877.011 93.055v-55.93h11.852v10.756h.537c.803-2.868 2.471-5.378 5.005-7.53 2.534-2.15 6.051-3.226 10.539-3.226h3.155v11.294h-4.676c-4.711 0-8.313.753-10.812 2.258-2.499 1.507-3.748 3.73-3.748 6.67v35.708h-11.852ZM940.269 94.346c-4.055 0-7.678-.68-10.868-2.043-3.182-1.363-5.904-3.317-8.145-5.862-2.247-2.546-3.971-5.629-5.165-9.25-1.194-3.622-1.794-7.655-1.794-12.1 0-4.447.6-8.48 1.794-12.1 1.194-3.622 2.918-6.706 5.165-9.25 2.241-2.547 4.963-4.5 8.145-5.863 3.19-1.362 6.813-2.044 10.868-2.044 4.132 0 7.775.717 10.923 2.152 3.155 1.434 5.78 3.423 7.88 5.97 2.101 2.545 3.679 5.502 4.733 8.873 1.047 3.37 1.57 6.99 1.57 10.863v4.41h-38.8v1.828c0 4.303 1.291 7.835 3.859 10.595 2.576 2.761 6.254 4.141 11.036 4.141 3.475 0 6.407-.753 8.801-2.26 2.394-1.505 4.418-3.548 6.086-6.13l6.959 6.776c-2.108 3.443-5.151 6.185-9.129 8.229-3.986 2.043-8.627 3.065-13.918 3.065Zm0-49.37c-2.024 0-3.888.36-5.591 1.076-1.703.718-3.155 1.722-4.348 3.012-1.201 1.291-2.122 2.833-2.771 4.625-.656 1.792-.984 3.765-.984 5.916v.753h26.306v-1.076c0-4.302-1.123-7.762-3.371-10.379-2.247-2.617-5.325-3.926-9.241-3.926Z"/>
    <path fill="#E520E9" d="M137.041 90.563 73.326 2.241c-2.005-2.757-6.628-2.757-8.613 0L.998 90.563A5.32 5.32 0 0 0 0 93.664a5.331 5.331 0 0 0 3.641 5.05l63.715 20.851h.01a5.306 5.306 0 0 0 3.292 0h.01l63.715-20.85a5.265 5.265 0 0 0 3.392-3.406 5.247 5.247 0 0 0-.749-4.746h.015ZM69.022 14.412 94.56 49.815l-23.882-7.813c-.185-.06-.38-.05-.564-.094a3.484 3.484 0 0 0-.548-.09c-.185-.025-.36-.095-.544-.095-.185 0-.354.07-.539.095-.184.02-.369.05-.548.09-.19.035-.384.035-.554.094L43.644 49.77l-.15.05L69.032 14.41h-.01ZM32.94 64.438l27.802-9.104 2.968-.967v52.838L13.86 90.887 32.94 64.438Zm41.399 42.757V54.367l30.77 10.071 19.079 26.434-49.854 16.323h.005Z"/>
</svg>